<svg width="1024" height="1024" viewBox="0 0 1024 1024" fill="none" xmlns="http://www.w3.org/2000/svg">
<rect width="1024" height="1024" fill="#1E1E1E"/>
<rect width="1024" height="1024" fill="white"/>
<path d="M103.202 724.42L701.5 227L622.5 199.5L984 74L829 426.5L811.246 334.5L737.623 397.5L664 460.5L378.374 684L498 664.5L40 950.5L259.175 724.42H103.202Z" fill="#1A1A1A" stroke="white" stroke-width="5"/>
<path d="M370.5 835.5L324 772.5L497 665L379.5 683.5L663.5 461V450.5H640L608 468.5L525.5 482L501 450.5V416L677.5 326.5H688L738 397.5L822.5 515V525.5L635.5 796V808.5L653.5 912H370.5V835.5Z" fill="#1A1A1A"/>
<path d="M449.5 783L608 547.5L684.5 508L663.5 490V461M663.5 461V450.5H640L608 468.5L525.5 482L501 450.5V416L677.5 326.5H688L738 397.5L822.5 515V525.5L635.5 796V808.5L653.5 912H370.5V835.5L324 772.5L497 665L379.5 683.5L663.5 461Z" stroke="white" stroke-width="5"/>
<path d="M286.186 435.464C284.724 434.489 272.741 441.604 236.5 477.862V521.722L360.714 610.904L398.709 571.43L286.186 435.464Z" fill="#1A1A1A"/>
<path d="M384.096 346.282L303.722 416.458L419.168 556.81L501.004 514.412L384.096 346.282Z" fill="#1A1A1A"/>
<path d="M401.632 330.2L474.5 426.692L503.926 406.5L556.5 370.5L482.006 260.024L401.632 330.2Z" fill="#1A1A1A"/>
<path d="M571.148 184L503.926 243.942L585.5 360.5L663.213 299.498L571.148 184Z" fill="#1A1A1A"/>
<path d="M286.186 435.464C284.724 434.489 272.741 441.604 236.5 477.862V521.722L360.714 610.904L398.709 571.43L286.186 435.464Z" stroke="white" stroke-width="5"/>
<path d="M384.096 346.282L303.722 416.458L419.168 556.81L501.004 514.412L384.096 346.282Z" stroke="white" stroke-width="5"/>
<path d="M401.632 330.2L474.5 426.692L503.926 406.5L556.5 370.5L482.006 260.024L401.632 330.2Z" stroke="white" stroke-width="5"/>
<path d="M571.148 184L503.926 243.942L585.5 360.5L663.213 299.498L571.148 184Z" stroke="white" stroke-width="5"/>
</svg>
